<svg id="圖層_1" data-name="圖層 1" xmlns="http://www.w3.org/2000/svg" viewBox="0 0 1628 909"><title>About_us background-image</title><rect width="1628" height="909" style="fill:#4c4c4c"/><path d="M962.71,65.75h0Z" transform="translate(11.83 7.63)" style="fill:#4c4c4c"/><path d="M802.26,171.87h0Z" transform="translate(11.83 7.63)" style="fill:#fff"/><path d="M802.29,171.87A169,169,0,0,1,970.87,330q.35,5.39.34,10.84a168.89,168.89,0,0,1-7.46,49.8,114.73,114.73,0,1,0,46.75,183.88,169.07,169.07,0,0,1-208.28,47.6c-3.21-1.6-6.4-3.3-9.54-5.12a168.06,168.06,0,0,1-38.86-30.79A114.73,114.73,0,1,0,571.6,536.49a169.05,169.05,0,0,1,62-206.46q4.48-3,9.21-5.71A168.63,168.63,0,0,1,689.13,306,114.73,114.73,0,1,0,802.29,171.87h-.07c-141.39,0-256,114.61-256,256s114.61,256,256,256,256-114.62,256-256S943.65,171.91,802.29,171.87Z" transform="translate(11.83 7.63)" style="fill:#fff"/></svg>