<svg id="svgg" data-name="svgg" xmlns="http://www.w3.org/2000/svg" viewBox="0 0 1097.35 325.78">
<title>Logo</title>

<path d="M844,236.5l-4.73,2.24c-2.51.51-5.45.39-7.45,1.66-8.34,5.28-14.23,1.7-17.6-5.37-3.54-7.41-7-15.59-7.16-23.48-.07-4.31,6.11-11.43,10.76-12.62,22-5.65,43.74-14.43,67.37-9.66,1.54.31,3,1.14,6.95,2.72l-57.59,31.57Zm11.2-39.06-27.76,5.34C837.54,216,841.24,211,855.22,197.44Z" transform="translate(-8 -5.29)" style="fill:#fff"/>
<path d="M844,236.5l-9.45-12.94L892.16,192c-4-1.58-5.41-2.41-6.95-2.72-23.63-4.77-45.38,4-67.37,9.66-4.65,1.19-10.83,8.31-10.76,12.62.13,7.89,3.62,16.07,7.16,23.48,3.37,7.07,9.26,10.65,17.6,5.37,2-1.27,4.94-1.15,7.45-1.66-10,4.52-19.76,9.46-29.95,13.43s-21.51,5.66-29.2,16.27c2.52.29,4.1.9,5.43.57,22.61-5.55,45.43-10.48,67.73-17.08,22.7-6.71,44.82-15.23,67.32-22.63,3.87-1.27,8.33-1.05,12.53-1.16,6.65-.19,13.68,1.22,19.88-.4,8.82-2.31,17-6.92,25.54-10.22,3-1.15,6.63-2.47,9.47-1.78,17.31,4.23,32.76,12.35,49.19,22.12L1024.3,242c22.06-3.05,39.53,6.75,56.78,18.17,4.82,3.19,11.58,4.14,17.6,4.82,2,.22,5.91-3.44,6.4-5.82,2.32-11.36-10.71-28.48-23.88-32.29-20.45-5.92-40.93-11.75-61.35-17.77-7.78-2.29-15.44-5-23.06-7.48,3.83-15.55,20.24-28.13,44.76-34.31-22.08-15.94-44.38-11.46-67.45-4.09,1.78-4.41,3.39-9.35,6.5-10.51,17.45-6.52,35.29-12.06,52.93-18.12,3.28-1.13,8-2.48,8.94-4.9,1.42-3.42.59-8.08-.44-11.92-.43-1.6-3.86-3.45-5.93-3.45-9.19,0-18.38.7-29.68,1.23,6.39-12.29,11.51-22.29,16.78-32.21,4.56-8.61-.2-16.25-10.18-16.2-8.84,0-17.69.06-26.54,0-7.42-.08-9.86,3.37-8.67,10.21A37.59,37.59,0,0,1,977.53,93c-2.46,9.22-8,17.94-9,27.2-1.26,11.76-9,12.91-17.71,14.38-1.22.21-2.36.83-7.06,2.54,5.87,3.79,9.74,6.23,13.55,8.76,2.29,1.51,5.7,2.71,6.52,4.8,2.54,6.6-3.59,21.53-8.79,26.35-2.59,2.4-3.34,6.67-4.92,10.09,3.82.46,8.26,2.38,11.32,1.12,9.25-3.8,18-8.83,28.62-14.27-14,21.06-20.38,23.19-40.27,20.62-13.52-1.75-27.5-.67-41.24,0-2.94.13-5.71,3.84-8.56,5.9l1.89,2.42c18.91-6.86,37.24-6.78,54.38,3.81-2.36,1.69-4.61,3.73-7.24,5.1a204.3,204.3,0,0,1-19.5,9.25c-2.44,1-5.82-.65-8.59-.14-10,1.83-19.85,4.07-29.77,6.16l-.7-2,21.41-13a157.52,157.52,0,0,0-32.29-5.82c-2.79-.23-7.71,1.19-8.36,3C866.37,222.5,855.7,229.89,844,236.5Z" transform="translate(-8 -5.29)" style="fill:#fff"/>
<path d="M582.86,251.43c.7-1.47,1.52-2.88,2.07-4.37,6.51-17.7,15.8-22.16,33.22-15.71,15.35,5.68,30.74,11.31,45.93,17.38,10.13,4,19.95,8.79,32.46,14.36l-14.68,6.75c24.48.37,44.74,13.32,70.24,10.76-1.24-6.64-.24-14.93-3.68-17.41-24.15-17.33-53.11-24.93-81.08-33.91-19.39-6.23-40-9-60.75-13.46,1.36-3,1.89-7.65,4.38-9.06,28.1-16,58.72-23.32,91.06-22.48,1.55-11.83-5.69-24.88-14.83-26.2-19.33-2.78-38.77-4.8-57-7-4.27-3.8-8.58-8.2-13.52-11.81-3.09-2.26-7.13-3.31-10.74-4.92-8.81-4-13.69-.44-13.25,8.95.42,8.92.09,17.87.09,27.39-24.84,7.41-49.73,14.7-74.49,22.4-3,.94-6.57,3.64-7.57,6.32-.69,1.84,2,6,4.28,7.5,5.69,3.76,11.72,7.53,18.19,9.61,11.1,3.56,22.64,5.83,34.24,8.71a1.68,1.68,0,0,1,.05,1.21c-11,22.13-30.87,35.23-52.05,46.67-3.7,2-9.66,2.93-13.36,1.47-10.24-4-13,2.6-18.25,9.88,9.36,1.58,18.1,5.6,25.21,3.74,17.35-4.53,33.85-12.08,50.93-17.75,4.36-1.45,9.78-1.27,14.39-.33,5.41,1.1,10.35,4.22,15.72,5.76,6.93,2,15.84-2.31,16.65-8.18,1-6.95-3.4-10.34-10.11-11.84C592.11,254.88,587.83,253.07,582.86,251.43Z" transform="translate(-8 -5.29)" style="fill:#fff"/>
<path d="M898.51,98.18c6.25-10.64,11.76-21,18.24-30.74,4-6,4.47-9.8-3.45-12.2-2.5-.75-4.69-2.44-7.18-3.24-14.92-4.79-29.71-10.24-47.72-8.94-2.33,18.86-4.63,37.41-6.92,56-.44,3.5-.16,7.3-1.54,10.41-1.24,2.82-3.86,6.23-6.62,7.07-15.4,4.67-31.08,8.45-46.53,13-3.53,1-6.53,3.8-9.77,5.76.23,1.2.47,2.4.7,3.6,14.83,3.72,29.69,7.31,44.46,11.25,3,.81,5.68,2.95,8.5,4.48-2.61,2.92-4.8,7.81-7.89,8.43-15.11,3-28.78,8.49-40.23,18.51-2.37,2.08-3.49,5.49-5.18,8.29,3.16.39,6.67,1.83,9.44,1,22.11-6.6,45-9.65,67.5-14.29,17-3.5,33.72-8.39,50.29-13.49,4-1.25,7-5.74,11.5-9.61l-31.54-6.24c-1.77-8.23-.5-14.07,8.68-16.52,10.17-2.71,20.13-6.12,30.3-9.27C935.34,96.47,913.68,103.91,898.51,98.18Z" transform="translate(-8 -5.29)" style="fill:#fff"/>
<path d="M203.5,310.24c6.26,0,12.58.53,18.77-.11,15-1.54,30.06-3,44.75-6,3.18-.65,6.74-7.67,7-11.94.84-13.12.27-26.33,0-39.51-.09-4.43-.86-8.85-1.35-13.65-13.63-2.68-25.51,1.88-37.3,6.38-20.08,7.66-40.06,15.58-60.08,23.39-6.95,2.72-14.65,4.39-20.68,8.41-10.86,7.24-22.59,8.57-35,7.91-7.93-.42-11.75-7.11-6-12.21,9-7.94,19-16.5,30.22-20.06,25.54-8.11,52.09-13.22,78.14-19.89a22.78,22.78,0,0,0,9.57-5.79c7.32-7.12,10.45-6.59,19-1.21,4.5,2.84,11.55,1.88,16.29,2.49,1.51-5.07,2.48-8.36,3.61-12.18l-9.62,1.33c.21-2.06.38-3.66.53-5.12C253,214,245,215.35,237.07,216.87c-2.91.56-5.94,2.42-8.59,1.94-3.75-.68-7.2-3-10.78-4.58,1.92-3.23,3-8.06,5.9-9.4,9-4.23,18.64-7.17,28.07-10.53,1.54-.55,3.44-.35,4.82-1.1,9.12-4.94,18.14-10.06,30-16.7-14.1,2.51-25.78,3.64-36.84,6.78-13.77,3.91-26.87,10-40.58,14.11-5.77,1.75-12.36,1-19.15,1.37,1.76-8.91,1.76-8.91,41.76-22.19-11.47-12.1-29.35-19.51-42-9.25-14.74,11.92-33.79,16.73-52.28,21.79-19.83,5.42-39.15,13-59.27,16.91-19.73,3.79-40.16,4.15-59.51-4.17C5.78,196.33,4.69,191,14.78,182c.9-.81.85-2.62,1.56-5.06,17.08,20.49,39.85,19.86,61.78,16.49a236.09,236.09,0,0,0,94-35.58c5.36-3.5,8.92-9.57,14.89-16.2l-64.2,9.31c20.35-12.7,42.69-17.69,66.11-19.12,3.8-.23,8.16-.43,11.19-2.29C213.91,121,227.4,112,240.94,103c4.08-2.7,7.92-5.75,12.21-8.88-21.61-4.26-24.6-2.55-42.33,8.09-13.62,8.18-28.91,13.85-43.76,20-3.56,1.46-8.31.22-12.51.22l-2-2.62c3.91-4,7.09-9.28,11.84-11.79,25.8-13.69,52.25-26.22,77.94-40.09,21.32-11.52,41.92-24.3,62.74-36.67,1.64-1,2.49-3.18,3.71-4.81-1.94-1.32-3.87-3.76-5.84-3.79-16.93-.29-35-3.79-50.57.66-28.55,8.14-55.88,20.75-67.73,51-3.52,9-9.83,13.25-20.26,14C145,89.74,129.94,79.5,113.82,72.26c-9-4.06-17.23-10-25.43-15.64-2.42-1.66-3.6-5-6.53-9.35,13.87,1,26.54-.52,37.22,3.26,14.84,5.26,28.32,1.86,41.79-1.33,30.74-7.26,60.52-16.83,88-33.09C269,4.19,292.55,4.33,315.55,6.28c11.41,1,23.19,1.07,32.88,8.82,7,5.61,7.46,12-.67,16-23.62,11.88-47.66,23-71.44,34.57-5.63,2.75-10.87,6.25-18.53,10.71,8.84,2.45,14.29,4.34,19.9,5.43,7.71,1.49,7.33,5.33,3.64,10.2-3.08,4.06-6.54,7.85-10.09,12.08,5.6,1.12,11.26,2,16.81,3.42,10.24,2.52,13.55,9,8.45,17.93-4,7-9.08,13.39-13.92,19.89S272.8,158,269.12,166.09l42.24-11.32c-1-5.64-2.25-10-2.51-14.33-.39-6.38.93-13-.33-19.15-1.71-8.28,3.16-11.89,9.36-12.82a147.84,147.84,0,0,1,30.39-1.41c7.66.44,14.21.55,19.69-5.65,7.71-8.72,15.87-17.08,24.33-26.12-19.9-8.65-40.06,8.66-58.72-1.63l-.34-3c6.26-1.22,12.47-3,18.78-3.51,14.55-1.08,29.16-1.47,43.73-2.2,9.09-.45,18.18-1,28.05.38-9.9,18.55-26.91,29.85-41.26,45.07,27.16,5.08,52.14,9.11,76.78,14.57,23.06,5.1,46.36,10.16,66.76,22.7,2.71,1.67,4.27,5.11,6.36,7.72-2.65,1.74-5.38,5.09-7.91,4.95-11.07-.6-22.11-2-33.08-3.57-5.45-.78-10.74-2.61-19.06-4.72h23.08c-.44-2-.41-4-1-4.17-10.5-3.25-21-6.43-31.65-9.29-6-1.61-12.23-2.66-18.37-3.87-22-4.37-43.91-9.09-66-12.72-4.74-.77-11.12,1.26-15.11,4.12-9.41,6.76-17.85,14.8-26.68,22.32l.86,2.51c5.93.3,12,0,17.75,1.15,3.24.62,8.77,4.18,8.49,5.29-1,3.8-3.22,8.85-6.45,10.24-9.13,3.92-19,6.25-26.91,8.7,4.37,1,10.89,1.9,16.8,4.23,3.3,1.3,5.58,5,8.32,7.66-3.75,2.69-7.16,6.18-11.34,7.87-4.68,1.89-11,.87-14.85,3.5s-5.25,8.13-7.74,12.38l1.82,2c9.21-1.69,19.45-1.47,27.43-5.46,19.3-9.67,39.88-12.56,60.76-16.29,11.93-2.13,22.81-4.68,34.07.43,4,1.8,8.67,3.75,10.82,7,1.28,1.93-.87,7.36-3.15,9.69-1.85,1.89-6.17,1.95-9.41,2-13,.38-26.06,0-39,.79-9.47.59-18.8,2.93-28.26,3.91-11.43,1.19-23,1.06-34.33,2.9-6,1-11.4,5.41-17.39,7.38-9.92,3.25-5.3,10.16-4.94,16,1.11,18.45,3.43,36.92,3.13,55.35-.28,16.47-18.63,32.39-35.72,33.17-13.92.63-27.39-.56-41-5-12-3.89-25.3-3.8-37.88-6.21-2.83-.54-5-4.18-7.53-6.4ZM206,152.48c30.12,6.43,53-6.25,63.7-34.78-15.49,4-30.33,5.83-43,11.88C218.57,133.45,213.66,143.59,206,152.48Z" transform="translate(-8 -5.29)" style="fill:#fff"/>
<path d="M582.86,251.43c5,1.64,9.25,3.45,13.71,4.44,6.71,1.5,11.06,4.89,10.11,11.84-.81,5.87-9.72,10.17-16.65,8.18-5.37-1.54-10.31-4.66-15.72-5.76-4.61-.94-10-1.12-14.39.33-17.08,5.67-33.58,13.22-50.93,17.75-7.11,1.86-15.85-2.16-25.21-3.74,5.2-7.28,8-13.93,18.25-9.88,3.7,1.46,9.66.52,13.36-1.47,21.18-11.44,41-24.54,52.05-46.67a1.68,1.68,0,0,0-.05-1.21c-11.6-2.88-23.14-5.15-34.24-8.71-6.47-2.08-12.5-5.85-18.19-9.61-2.3-1.51-5-5.66-4.28-7.5,1-2.68,4.54-5.38,7.57-6.32,24.76-7.7,49.65-15,74.49-22.4,0-9.52.33-18.47-.09-27.39-.44-9.39,4.44-12.9,13.25-8.95,3.61,1.61,7.65,2.66,10.74,4.92,4.94,3.61,9.25,8,13.52,11.81,18.27,2.19,37.71,4.21,57,7,9.14,1.32,16.38,14.37,14.83,26.2-32.34-.84-63,6.52-91.06,22.48-2.49,1.41-3,6.07-4.38,9.06,20.78,4.47,41.36,7.23,60.75,13.46,28,9,56.93,16.58,81.08,33.91,3.44,2.48,2.44,10.77,3.68,17.41-25.5,2.56-45.76-10.39-70.24-10.76l14.68-6.75c-12.51-5.57-22.33-10.32-32.46-14.36-15.19-6.07-30.58-11.7-45.93-17.38-17.42-6.45-26.71-2-33.22,15.71C584.38,248.55,583.56,250,582.86,251.43Z" transform="translate(-8 -5.29)" style="fill:#fff"/>
<path d="M898.51,98.18c15.17,5.73,36.83-1.71,35,23.2-10.17,3.15-20.13,6.56-30.3,9.27-9.18,2.45-10.45,8.29-8.68,16.52l31.54,6.24c-4.49,3.87-7.46,8.36-11.5,9.61-16.57,5.1-33.3,10-50.29,13.49-22.53,4.64-45.39,7.69-67.5,14.29-2.77.83-6.28-.61-9.44-1,1.69-2.8,2.81-6.21,5.18-8.29C804,171.49,817.68,166,832.79,163c3.09-.62,5.28-5.51,7.89-8.43-2.82-1.53-5.47-3.67-8.5-4.48-14.77-3.94-29.63-7.53-44.46-11.25-.23-1.2-.47-2.4-.7-3.6,3.24-2,6.24-4.72,9.77-5.76,15.45-4.53,31.13-8.31,46.53-13,2.76-.84,5.38-4.25,6.62-7.07,1.38-3.11,1.1-6.91,1.54-10.41,2.29-18.55,4.59-37.1,6.92-56,18-1.3,32.8,4.15,47.72,8.94,2.49.8,4.68,2.49,7.18,3.24,7.92,2.4,7.45,6.16,3.45,12.2C910.27,77.19,904.76,87.54,898.51,98.18Z" transform="translate(-8 -5.29)" style="fill:#fff"/>
<path d="M206,152.48c7.68-8.89,12.59-19,20.69-22.9,12.68-6.05,27.52-7.86,43-11.88C259,146.23,236.1,158.91,206,152.48Z" transform="translate(-8 -5.29)" style="fill:none"/>

</svg>