<svg xmlns="http://www.w3.org/2000/svg" viewBox="0 0 707.51649 514.89667">
  <title>QingTaiko2</title>
  <g id="圖層_2" data-name="圖層 2">
    <g>
      <path d="M734.82718,254.96871c5.52819,1.77971,5.6245,2.03322,8.27825,2.95386,3.40577,1.18152,4.74512,1.32,8.04424,2.49051a47.55029,47.55029,0,0,1,10.488,5.32231c-23.15846-7.11614-47.04018-9.32241-71.00076-12.3637-.69281,7.70892-1.44389,14.87339-1.95917,22.0545-.99507,13.86785-1.63767,27.76365-2.83219,41.61357q-2.04207,23.67712-4.85714,47.28646a126.96425,126.96425,0,0,1-3.96035,20.91558c-3.41321,11.57724-19.83348,14.73849-28.855,5.87642-12.22352-12.0075-20.14511-26.8055-25.49421-42.59952-.15683-.46307-.48569-1.8935-.48569-1.8935a34.62407,34.62407,0,0,0,5.72055,7.2991c2.53079,2.40308,3.59309,3.86178,5.375,5.75,5.27947,7.07463,10.48423,11.18435,16.81252,17.5,2.4284,2.42354,7.79166,7.22917,11.58333,5.9375a9.16888,9.16888,0,0,0,5.29167-3.95833c1.43249-1.91307,2.16037-5.136,2.79155-6.96093,5.58345-16.14324,6.08926-33.58266,7.87511-50.37241,2.24264-21.08333,2.78763-42.05711,4.71034-63.17381.59454-6.52943-.16159-7.27094-6.77206-7.56466-14.04437-.624-28.07669-1.59721-42.12644-1.99819-16.17265-.46156-32.3683-.88411-48.53618-.52952-13.71755.30086-26.89088.49249-40.609,1.09952-8.55046.37838-17.21384,1.08741-26.20915,1.43334-11.55408.44433-22.72324,1.76821-34.24918,2.775-14.92278,1.30349-30.21216,2.61076-45.07138,4.36526-18.94493,2.23691-37.74314,5.66828-56.63655,8.36524-10.136,1.44686-20.117,3.04642-30.16707,4.8945-19.74582,3.631-39.77012,6.433-59.332,10.92654-10.75653,2.79341-21.81858,5.85511-32.83467,8.32346-3.1452.70474-6.01,1.13391-9.5,2.08333-2.68218.52971-3.87527,3.44742-3.81277,6.19863.24035,10.5816.46221,21.16407.59238,31.74742.039,3.17172-.04721,6.11245.1499,9.26593.39339,6.29388.21678,13.01485.351,19.30626.27759,13.00667.82959,25.81988.96338,38.83083.15252,14.83261.679,29.66321.69279,44.495.01237,13.34306-.61239,26.68619-.63987,40.02994-.01621,7.86732.60849,15.735.89991,23.60413a307.09907,307.09907,0,0,0,.34493,31.06354l-4.54167-32.04167c-2.01682-12.89482-6.49329-28.89445-9.25095-41.62395-2.71736-12.54348-4.60981-25.1981-4.01522-38.21063.7668-16.78095.55324-33.60418.88973-50.40671.14854-7.417.01584-15.12828-.08592-22.53627-.23885-17.38912.03647-34.47638-.29008-51.865-.04776-2.543-1.096-3.31568-3.25778-3.14454a79.51287,79.51287,0,0,0-10.44811,1.70374c-6.79781,1.47995-13.29281,2.68512-20.1765,4.54936-10.99229,3.60858-21.82428,7.70307-32.68083,11.70707-6.95735,2.56594-13.86558,5.2685-20.7455,8.03262-8.85407,3.55722-17.66638,7.21695-26.48079,10.8701-9.68612,4.01441-19.44909,7.865-29.00281,12.16939-9.14379,4.11969-18.15517,8.555-27.04414,13.191-5.29254,2.76032-7.70789,1.57513-8.44079-4.422-1.01259-8.28564,2.90319-15.54759,9.37453-18.21651,16.67267-6.87609,29.778-19.93605,42.44683-30.256,11.40457-8.30352,21.16878-18.3328,31.99948-27.41132a27.42471,27.42471,0,0,1,2.5294-1.69509h0C125.2,299.40562,105.066,316.73519,85.88575,336.14527c19.685-9.81671,38.8162-18.01344,57.84055-26.90847,14.07066-6.57891,28.7561-11.67885,43.5-16.5,13.67668-4.72657,25.46421-8.3756,38.3035-11.52486,3.63007-.73336,5.32474-1.62347,5.27453-5.97874-.14251-12.3576.49764-24.72387.79807-37.08748a1.42273,1.42273,0,0,0-.32853-.78779c-14.07945,5.81025-28.072,11.55263-42.02707,17.38291-1.80007.752-3.30351,2.27-5.13293,2.86214a8.32765,8.32765,0,0,1-5.13948.10759c-.717-.2712-1.207-2.78675-.80748-3.95245.85235-2.48728,1.78624-5.45274,3.69906-6.97756a105.78726,105.78726,0,0,1,14.72628-9.74307c7.84941-4.34106,15.96442-8.2118,23.97283-12.2703,1.08967-.55222,2.19868-1.074,3.32718-1.5427,2.46019-1.022,6.63029-1.53128,7.07178-3.09075,1.04953-3.70731.338-7.90327.338-13.28529-26.567,11.69866-53.28859,18.11-79.87933,24.96787l-.60383-1.37963c2.8686-1.61683,5.72457-3.25616,8.60852-4.84569,5.6674-3.1237,11.25287-6.41515,17.06251-9.25583,3.63893-1.77928,7.7298-2.634,11.43676-4.29885,16.00205-7.18665,31.81213-14.80487,47.93016-21.72226q26.908-11.54819,54.29646-21.976c4.0217-1.523,9.07252-1.08583,13.53553-.57527,4.953.56661,6.26539,5.05288,2.59948,8.56093-9.88589,9.46018-19.79624,18.91776-30.15311,27.85836-2.82823,2.44148-7.26815,3.05308-11.65093,4.77213,10.14249-10.11544,23.35484-16.48947,30.35875-30.10261a17.29739,17.29739,0,0,0-2.80675.6423c-14.46739,6.85035-28.97572,13.62106-43.31177,20.732-1.8312.90831-3.4324,3.4519-3.93977,5.52576-.81424,3.32811-.6256,6.89667-.90833,11.06462,1.954-.24034,3.68278-.31079,5.34358-.68041,10.42553-2.32038,20.7322-5.42335,31.2734-6.91993,20.53855-2.91593,41.18-5.20961,61.83589-7.17136,5.83609-.55427,11.87039.93724,17.90867,2.52453-14.27509,6.014-29.39734,9.52818-41.93636,18.33119-12.42729,8.72453-24.18592,18.38248-37.02767,27.03921,5.94271-6.73132,11.53032-13.8174,17.92838-20.09374,6.345-6.22426,13.50632-11.63285,20.67092-17.70539a30.56837,30.56837,0,0,0-4.52211,1.09595c-15.01773,6.16756-30.77555,9.30652-46.73974,11.94734-6.66446,1.10243-13.06593,3.88911-19.488,6.18177a4.56094,4.56094,0,0,0-2.485,3.28714c-.57372,13.31621-.92417,26.64192-1.30674,39.96585a8.61508,8.61508,0,0,0,.66587,1.97768c5.117-.77606,10.38657-1.28367,15.51786-2.40908,14.45316-3.16986,29.07725-6.19578,43.58595-9.07517,14.68131-2.91366,28.88363-5.027,43.70833-7.125,8.91447-1.26157,20.71913-3.57982,29.66667-4.66667a140.954,140.954,0,0,0,15.257-2.40007c-1.15839-.895-2.05864-1.584-3.19019-2.44335a22.2813,22.2813,0,0,1-6.62017-8.97232c-2.45715-5.676-4.21225-11.75751-3.12363-18.47031a94.82165,94.82165,0,0,1,2.87012-12.90237c1.04317-3.68976,2.80326-7.3011,4.1947-10.85675a75.59209,75.59209,0,0,1,9.80715-17.94819,101.29857,101.29857,0,0,1,6.40613-8.74574,37.99749,37.99749,0,0,1,2.9118-3.02212c10.06294-11.03354,22.61876-18.44049,36.71-22.78224,8.40212-1.91487,14.9216-1.3004,21.77712,5.54346a19.732,19.732,0,0,1,5.92,13.72679c.443,7.561.10564,15.07588-9.3613,19.09183a48.52861,48.52861,0,0,1,2.54544-4.44362c4.66667-6.52083,1.89275-12.58835-1.24553-17.92266-3.25608-5.53464-9.37106-7.81721-15.93719-6.868A44.90275,44.90275,0,0,0,424.4763,164.9868c-5.89282,5.45477-10.85083,10.07082-15.63731,16.36823a95.776,95.776,0,0,0-13.48946,23.59552c-4.04869,10.70958-5.22736,22.10575,1.48012,32.7093A12.49073,12.49073,0,0,0,413.1246,242.388c3.18108-1.48959,6.28779-3.14633,9.52381-4.50393a10.245,10.245,0,0,1,4.38059-.68252,3.227,3.227,0,0,1,2.48357,1.47924c.239.7037-.44832,1.98348-1.09936,2.66271-1.60828,1.678-3.42858,3.15673-5.16364,4.71556l.61545,1.52463,32.47489-4.62866c-1.29668-2.05252-2.50973-4.1697-3.912-6.15593-4.488-6.35709-4.37574-12.45325.09708-18.93111,2.63941-3.82262,4.37588-8.267,6.41865-12.47918,1.49608-3.08492.07839-5.69339-3.05766-4.77588a45.93853,45.93853,0,0,0-13.69769,6.36682c-6.40892,4.58511-11.9988,10.2795-18.2839,15.05481-1.84966,1.40537-5.23427,3.28436-7.36461,1.874-1.62871-1.07824-.99989-3.85993-.93855-5.77225.2207-6.8803,4.48542-11.84388,8.79-16.85251q-.51456,4.09953-1.02914,8.19908l1.38115.533c1.81911-1.54495,3.61-3.12387,5.46239-4.62873,6.68378-5.43,12.63213-11.85648,21.70676-13.7902,4.58312-.97663,8.7883-.86273,11.79612,2.65632,3.42549,4.00775,6.77517,8.3774,4.38065,14.37315-1.85358,4.64131-3.94291,9.28156-4.96576,14.12146a13.13357,13.13357,0,0,0,1.42641,8.7806c2.23871,3.684,5.887,3.843,9.92185.67958,8.13226-6.37584,15.99008-13.09476,23.95979-19.67373a42.95171,42.95171,0,0,1,8.74854-6.06143,9.80494,9.80494,0,0,1-1.09965,1.9669c-8.24917,9.07734-16.4037,18.24516-24.89232,27.09868-2.08284,2.17237-5.27963,3.298-8.74045,5.36934a32.08716,32.08716,0,0,0,4.14908.28968c17.70322-1.2848,35.40038-2.6529,53.10665-3.89351,3.09412-.2168,5.05206-1.06621,4.49975-4.5855-1.44231-9.19076,4.44563-15.97457,8.02777-23.46542a98.12255,98.12255,0,0,1,7.91223-13.75913c1.70952-2.45313,4.40535-4.33112,6.93774-6.06651a3.84677,3.84677,0,0,1,3.68255.45827c.60861.60746.40636,2.546-.07847,3.60887-4.4016,9.65133-9.0976,19.17386-13.34849,28.888-1.21824,2.784-1.26861,6.0689-1.8545,9.12411l1.61444.724c1.88418-1.66192,3.89574-3.20394,5.62814-5.00868,4.83533-5.03725,9.42134-10.31394,14.35213-15.25522q10.61493-10.63752,21.60263-20.90842c5.66184-5.28911,11.5172-10.38419,17.45758-15.36566a11.82119,11.82119,0,0,1,5.36076-2.32763c6.03018-1.06122,9.22312,1.66909,8.34983,7.61466-1.21213,8.252-4.73005,15.7187-8.30395,23.28586-3.1511,6.67216-4.85,14.18971-6.09446,21.51635-.9931,5.84686,1.63089,7.26317,6.72473,4.489,9.85305-5.36615,19.64413-10.8438,29.47267-16.25429a21.57508,21.57508,0,0,1,2.37018-.97006c.24017.312-.24011-.312,0,0-8.97072,7.54263-17.221,16.02119-26.39577,23.73535l59.78443,6.48266c-3.93466-4.52218-6.83466-8.11984-10.01341-11.45725-8.28482-8.6983-10.46335-18.66079-10.54053-30.69562.26468-3.49642,2.19943-10.16682,4.78795-13.29028,2.80377-3.38319,3.99307-5.19644,5.96205-7.00139a43.44808,43.44808,0,0,1,5.27063-3.81011c.59388-.39,6.64186-1.90821,7.29184-2.08572,9.1162-2.48951,15.06575,11.34455,12.75,21.0625-2.18882-2.39858-2.731-4.40349-4-6.5-2.3839-3.93873-7.24357-5.63583-11.25939-3.2282-2.65477,1.59166-5.65579,3.8025-6.80223,6.45587-3.641,8.427-4.85081,17.15693.3031,25.6429,2.88911,4.757,5.70879,9.55576,8.63375,14.29091,2.4823,4.01858,4.981,8.03438,7.68635,11.90486.55691.79673,2.02132,1.15337,3.13423,1.35888,8.83454,1.63145,17.69875,3.10683,26.52545,4.77742,4.86617.921,9.67761,2.12561,14.82136,3.27089M608.72816,185.0968a49.86835,49.86835,0,0,0-17.74644,11.85793q-15.1893,15.945-30.29992,31.9635c-1.99372,2.10611-3.955,4.24235-6.40687,6.87555l43.11826,1.74759C593.37861,217.865,604.78127,202.67563,608.72816,185.0968Z" transform="translate(-54.12123 -22.46512)" style="fill: #fff"/>
      <g>
        <path d="M319.28253,51.88813q-14.99206,8.6685-29.97775,17.34779c-4.08849,2.38216-7.89839,5.34788-12.19926,7.2341-8.99453,3.94474-13.57258,11.65438-18.62279,19.27627a219.32778,219.32778,0,0,1-17.225,23.22864c-10.43561,11.95864-21.50223,23.38225-32.45436,34.89008a14.90834,14.90834,0,0,1-7.73212,4.11594c7.21222-8.63316,14.73571-17.03262,21.56766-25.95129,11.87558-15.50275,22.34924-31.90532,30.056-49.89544,6.79713-15.86676,13.17369-31.92454,20.53393-47.529,1.59433-3.38007,6.48992-5.34577,10.0735-7.6443a14.59283,14.59283,0,0,1,5.7156-1.8878,38.50818,38.50818,0,0,1,6.26522.07646c-.17383,2.07005.18386,4.37162-.61512,6.16939-3.17261,7.13878-6.71268,14.11729-10.09776,21.16405-.36759.76522-.61316,1.58786-1.556,4.07129,8.86968-5.14583,16.22332-9.7317,23.86907-13.77639,12.94914-6.85027,26.0656-13.39225,39.15281-19.98388,2.77317-1.39677,9.928,1.86065,11.437,5.90277.5548,1.486-1.47108,4.34668-2.93334,6.07008-9.0801,10.70172-18.65993,21.00245-27.4372,31.93716-8.3094,10.35185-15.94749,21.24146-23.659,32.04967-3.44147,4.82343-6.33973,10.02668-9.515,15.10624,22.3411,26.56174,49.33118,49.66789,66.59773,81.9797-6.0033-5.29924-11.62556-9.272-15.99359-14.31052-11.39205-13.14077-24.68547-24.15329-38.2-34.95044-7.82938-6.25507-15.81556-12.33631-24.0163-18.098-1.28065-.89973-4.78884-.43746-6.05813.708-4.44962,4.01536-8.322,8.65107-12.50488,12.9644-5.179,5.34046-10.49642,10.54954-15.66359,15.901-3.6027,3.73118-7.03252,7.62557-10.599,11.39187-.43319.45742-1.23682.571-3.1107,1.38043.72007-2.18881.85829-3.52495,1.52763-4.50588,9.82175-14.3936,19.52573-28.87311,29.7171-43.00758,2.68393-3.72239,1.64033-5.30382-1.45845-7.30142-1.96411-1.26613-5.672-1.96182-3.58539-5.42245a59.5316,59.5316,0,0,1,7.74829-9.82313c.36325-.3864,3.12419,1.04182,4.46138,2.04012,1.98659,1.48309,3.69394,3.33279,6.12075,5.58351,14.15609-18.58506,27.91-36.64212,41.66389-54.69919Q319.929,52.7892,319.28253,51.88813Z" transform="translate(-54.12123 -22.46512)" style="fill: #fff"/>
        <path d="M204.50307,94.96525c-9.46357,2.99912-10.28854,4.72405-13.55554,6.1102-3.28073,1.392-5.35965,3.426-9.13777,3.79839q.09574.92913.19152,1.85827c2.01776-.30083,4.02667-.69322,6.05491-.88576,6.74941-.6408,11.64039,5.17562,8.75577,11.13692-2.81081,5.80874-6.7,11.11247-10.2094,16.579-.875,1.363-2.52067,2.33273-3.11416,3.7664-3.7202,8.98688-13.655,11.06713-19.64786,17.50506-.60789.653-1.95471.63189-2.92686.91438-2.97475-7.1035-2.22969-9.785,5.75118-14.77037,7.31746-4.571,11.01324-11.68655,15.54045-18.29721l-1.03919-1.374c-5.32768,3.54756-10.62046,7.148-15.99585,10.62324a93.61551,93.61551,0,0,1-10.27367,6.12508c-3.83613,1.83215-5.09653,4.39439-3.9774,8.36555.83758,2.97218,2.29057,6.05758,2.01418,8.95656-.19011,1.99412-2.51489,4.54478-4.52389,5.43535-2.99494,1.3276-4.21033-.74214-4.87581-3.878a123.55671,123.55671,0,0,0-4.55594-14.53965c-1.35519-3.91694-.788-6.49375,3.07132-9.17993,6.41381-4.46418,12.01407-10.05638,18.17181-14.90611,3.09111-2.43449,6.65549-4.28,9.43529-7.48317-5.26411,2.60339-10.62943,5.02639-15.76879,7.85215-7.85133,4.31688-15.49782,8.99786-23.327,13.35564-4.48644,2.49718-8.97209,1.66113-11.72952-2.41841-2.54516-3.76551-3.90686-8.2347-.225-12.564,11.46922-13.48582,22.833-27.0595,34.29712-40.5496,2.72292-3.20412,6.35576-5.08428,10.08986-2.29173,3.48222,2.60418,1.66659,5.87994.04222,9.24662-2.548,5.28107-4.312,10.93287-6.40806,16.42767l1.42016,1.03529c9.3396-5.85522,18.55368-11.91927,28.04993-17.51392,12.45437-7.33737,24.9976-14.55413,37.79789-21.27131,3.60747-1.89309,8.24874-1.85534,12.41585-2.70319L237.436,61.0531c-.90183,1.76693-1.33153,4.27257-2.782,5.18115-9.54753,5.98074-12.48962,15.87731-15.62943,25.5043-6.31137,19.35136-12.13923,38.85666-18.3114,58.25329-4.07654,12.811-8.154,25.63177-12.697,38.28417-3.97685,11.07549-14.12551,13.47243-23.043,5.5523a89.89811,89.89811,0,0,1-13.00114-13.73864c-1.32242-1.80556-.83042-6.29335.60314-8.34494,1.75443-2.51085,4.40808-1.72389,7.28162.81653,5.42714,4.798,19.17191,4.2732,22.96083-5.84154,3.37355-9.00591,5.7302-18.38141,8.66218-27.55417,3.56974-11.168,7.3589-22.26774,10.862-33.45569C203.3511,102.48641,203.70138,99.06072,204.50307,94.96525Z" transform="translate(-54.12123 -22.46512)" style="fill: #fff"/>
        <path d="M171.13345,75.94239C164.52,73.82248,164.52,73.82248,158.429,55.49386,139.86012,68.72165,125.905,87.04942,106.6787,99.62371c-.83917-5.35423-1.92922-9.86874-2.07416-14.41279-.0595-1.8658,1.46765-4.37667,3.0562-5.585,4.47436-3.40347,9.3309-6.32034,14.08043-9.36223,11.35192-7.27046,22.75783-14.45907,34.04914-21.82023a6.24328,6.24328,0,0,0,2.14684-3.63773c.31221-1.34515-.35406-2.88675-.18748-4.29546.94894-8.02589,2.43088-9.31473,12.85264-11.74909,3.20422-.74845,6.37186-1.65182,9.58044-2.37979,1.15178-.26132,3.22688-.61825,3.411-.23659.64342,1.33349,1.19706,3.1433.77773,4.45709a38.90034,38.90034,0,0,1-3.8152,8.43669c-6.31358,10.30791-6.8421,22.01882-8.58277,33.44434-.13518.88733-.1382,1.79383-.23824,2.68751C171.71815,75.32374,171.521,75.45731,171.13345,75.94239Z" transform="translate(-54.12123 -22.46512)" style="fill: #fff"/>
        <path d="M215.83177,45.43544c4.07867-1.432,8.4231-3.16025,12.89064-4.48,7.38321-2.18111,14.75657-4.65386,22.32024-5.846,2.90436-.45777,6.319,2.25729,9.50107,3.52663-1.14949,2.17573-1.85013,4.79822-3.52689,6.44909-6.90516,6.79869-16.65518,6.07459-25.15249,8.62166-6.22579,1.86618-13.09663,1.88269-19.068,4.24189-5.08322,2.00833-9.34914,6.10942-13.85318,9.44791-1.28623.95339-1.95183,2.73014-3.24134,3.67583a48.38347,48.38347,0,0,1-5.82223,3.219c-.28889-2.02317-1.11763-4.14188-.77258-6.05286,1.44084-7.98,2.61075-16.09568,5.1001-23.77391,1.91778-5.91521,5.41418-11.40158,8.7764-16.72732.7254-1.149,4.59155-1.77858,5.78582-.9391,3.22178,2.26464,6.79511,5.01679,8.27917,8.411C218.19327,37.82738,216.38647,41.71039,215.83177,45.43544Z" transform="translate(-54.12123 -22.46512)" style="fill: #fff"/>
      </g>
      <path d="M556.42243,181.292c-1.19484-1.93045,0-4.5406,0-8.01287-12.26116,6.05822-23.57113,12.70763-34.0104,21.98811,8.15947-13.98275,19.5226-21.61381,32.3619-29.37194.71418-.26174,1.46856-.88774,2.11336-.785,3.59454.57277,8.494.14883,10.41068,2.29061,2.58635,2.89-1.07123,6.26505-3.42257,8.79907-1.89528,2.04247-3.29859,5.37411-6.06232,5.78508A1.52033,1.52033,0,0,1,556.42243,181.292Z" transform="translate(-54.12123 -22.46512)" style="fill: #fff"/>
    </g>
  </g>
</svg>
